#!OML:ASF I:\golf\golf\golf 2\Subject 1\2002-09-07\Subject1.ASF
:FULLY-SPECIFIED
:DEGREES
510
root -5.71749 18.0588 -1.19895 -165.788 2.15041 -176.32
lowerback -4.36383 8.92937 7.10954
upperback -7.09623 12.8588 1.28278
thorax -3.85087 6.53599 -2.3073
lowerneck -19.3105 -13.3133 -0.903293
upperneck 4.08768 -18.0363 4.06854
head 4.67038 -8.7009 -0.334879
rclavicle -9.83984e-015 -1.27222e-014
rhumerus 78.8316 31.3233 -58.7464
rradius 36.3012
rwrist -9.88032
rhand -39.491 28.7276
rfingers 7.12502
rthumb -12.477 -0.879926
lclavicle -9.83984e-015 -1.27222e-014
lhumerus 57.8505 -6.09794 70.3295
lradius 33.5033
lwrist 35.7001
lhand -13.7989 12.0488
lfingers 7.12502
lthumb -167.677 581.666
rfemur 7.66459 -5.29445 19.7163
rtibia 25.5054
rfoot 28.624 -22.6356
rtoes 13.6241
lfemur -29.682 -16.9601 -11.2507
ltibia 23.4716
lfoot 38.2121 -39.4749
ltoes 52.023
511
root -5.71482 18.059 -1.19103 -165.792 2.16813 -176.336
lowerback -4.22698 8.87871 7.06082
upperback -7.06294 12.7963 1.32771
thorax -3.915 6.502 -2.26355
lowerneck -19.2262 -13.2466 -1.02927
upperneck 4.02159 -17.9243 4.14272
head 4.6532 -8.64664 -0.278286
rclavicle -1.09431e-013 -5.24792e-014
rhumerus 77.9582 31.7466 -59.2604
rradius 36.591
rwrist -9.68947
rhand -39.594 28.2033
rfingers 7.12502
rthumb -12.5764 -1.39815
lclavicle -1.09431e-013 -5.24792e-014
lhumerus 57.1296 -6.34419 70.4246
lradius 33.6412
lwrist 35.6784
lhand -13.8626 12.2372
lfingers 7.12502
lthumb -167.738 581.858
rfemur 7.63875 -5.33709 19.6779
rtibia 25.5316
rfoot 28.4686 -22.6229
rtoes 13.6364
lfemur -29.7085 -16.9666 -11.243
ltibia 23.478
lfoot 38.1982 -39.4361
ltoes 52.1339
512
root -5.71292 18.0588 -1.18303 -165.752 2.1745 -176.286
lowerback -4.11859 8.83066 7.1008
upperback -7.05028 12.7429 1.38346
thorax -3.97076 6.4721 -2.24989
lowerneck -19.2257 -13.1714 -1.19298
upperneck 3.97545 -17.7962 4.23972
head 4.65964 -8.58178 -0.214889
rclavicle -8.79622e-014 -3.02153e-014
rhumerus 77.0351 32.184 -59.9087
rradius 36.811
rwrist -9.37064
rhand -39.8058 27.8537
rfingers 7.12502
rthumb -12.7806 -1.73514
lclavicle -8.79622e-014 -3.02153e-014
lhumerus 56.4802 -6.46761 70.8343
lradius 33.5796
lwrist 35.261
lhand -13.6786 12.3174
lfingers 7.12502
lthumb -167.561 581.927
rfemur 7.57451 -5.43796 19.6998
rtibia 25.5335
rfoot 28.3877 -22.5903
rtoes 13.7567
lfemur -29.7876 -16.9222 -11.1683
ltibia 23.5019
lfoot 38.1132 -39.5909
ltoes 51.884
513
root -5.71202 18.0589 -1.17754 -165.688 2.16987 -176.266
lowerback -4.1151 8.77741 7.11081
upperback -6.99374 12.6664 1.45226
thorax -3.93199 6.4359 -2.1847
lowerneck -19.2895 -13.097 -1.33047
upperneck 3.98432 -17.6642 4.24251
head 4.68107 -8.51706 -0.187309
rclavicle 3.05134e-014 -1.51076e-014
rhumerus 76.2944 32.595 -60.5122
rradius 36.905
rwrist -9.1848
rhand -39.9086 27.7696
rfingers 7.12502
rthumb -12.8796 -1.81296
lclavicle 3.05134e-014 -1.51076e-014
lhumerus 55.8607 -6.55087 71.2032
lradius 33.5692
lwrist 34.7881
lhand -13.6529 12.409
lfingers 7.12502
lthumb -167.536 582.017
rfemur 7.49168 -5.49588 19.7095
rtibia 25.5539
rfoot 28.2189 -22.7313
rtoes 14.1052
lfemur -29.8833 -16.9068 -11.1165
ltibia 23.5106
lfoot 37.9083 -39.8047
ltoes 51.5805
514
root -5.71207 18.0572 -1.17387 -165.652 2.18276 -176.35
lowerback -4.14578 8.72068 7.01832
upperback -6.89941 12.5725 1.51603
thorax -3.8529 6.39453 -2.06333
lowerneck -19.2887 -13.01 -1.48565
upperneck 3.97824 -17.5078 4.22769
head 4.68726 -8.44276 -0.155083
rclavicle -3.61788e-014 2.70347e-014
rhumerus 75.6048 32.9967 -61.0132
rradius 37.0501
rwrist -9.24451
rhand -39.677 27.7479
rfingers 7.12502
rthumb -12.6564 -1.84866
lclavicle -3.61788e-014 2.70347e-014
lhumerus 55.1966 -6.56331 71.6139
lradius 33.7214
lwrist 34.5158
lhand -13.5172 12.7478
lfingers 7.12502
lthumb -167.405 582.348
rfemur 7.43234 -5.53384 19.6038
rtibia 25.6228
rfoot 28.2617 -22.9056
rtoes 14.0205
lfemur -29.9354 -16.9558 -11.1797
ltibia 23.4977
lfoot 37.8117 -39.7525
ltoes 51.6795
515
root -5.71291 18.0534 -1.16882 -165.593 2.18733 -176.45
lowerback -4.18284 8.61891 6.90894
upperback -6.79289 12.4203 1.619
thorax -3.77333 6.32627 -1.89533
lowerneck -19.3473 -12.8857 -1.75979
upperneck 3.98337 -17.2828 4.28742
head 4.72107 -8.33062 -0.0830373
rclavicle 5.84924e-014 -1.11319e-014
rhumerus 74.8369 33.5499 -61.5967
rradius 37.3012
rwrist -9.17819
rhand -39.3662 27.5459
rfingers 7.12502
rthumb -12.3567 -2.06895
lclavicle 5.84924e-014 -1.11319e-014
lhumerus 54.5071 -6.30322 72.2864
lradius 33.8897
lwrist 34.2162
lhand -12.905 13.367
lfingers 7.12502
lthumb -166.815 582.93
rfemur 7.33489 -5.60318 19.476
rtibia 25.7135
rfoot 28.8104 -22.928
rtoes 13.7804
lfemur -30.0034 -16.9618 -11.2777
ltibia 23.4579
lfoot 38.0451 -39.4994
ltoes 52.0002
516
root -5.71307 18.0522 -1.16202 -165.518 2.20279 -176.53
lowerback -4.19855 8.56807 6.81137
upperback -6.71171 12.3396 1.68293
thorax -3.7159 6.29138 -1.77495
lowerneck -19.4939 -12.8243 -1.97592
upperneck 4.06608 -17.1494 4.29373
head 4.78403 -8.26186 -0.0514551
rclavicle 2.18663e-015 2.70347e-014
rhumerus 73.9914 33.9783 -62.2158
rradius 37.5351
rwrist -8.98728
rhand -39.1569 27.2459
rfingers 7.12502
rthumb -12.1549 -2.38101
lclavicle 2.18663e-015 2.70347e-014
lhumerus 53.842 -6.25975 72.8657
lradius 34.028
lwrist 33.793
lhand -12.5643 13.7976
lfingers 7.12502
lthumb -166.487 583.339
rfemur 7.1873 -5.5794 19.4077
rtibia 25.8273
rfoot 29.0382 -23.0548
rtoes 14.1918
lfemur -30.0711 -16.9261 -11.3491
ltibia 23.3849
lfoot 38.2119 -39.3629
ltoes 52.0825
517
root -5.71334 18.0544 -1.15782 -165.518 2.26301 -176.682
lowerback -4.17332 8.5127 6.64377
upperback -6.61426 12.2528 1.75721
thorax -3.67891 6.25395 -1.61487
lowerneck -19.5612 -12.7869 -2.23689
upperneck 4.12365 -17.0329 4.28012
head 4.82896 -8.20492 -0.0153529
rclavicle -5.22804e-014 -2.22639e-014
rhumerus 73.3541 34.4291 -62.4152
rradius 37.8045
rwrist -9.31156
rhand -38.776 26.9172
rfingers 7.12502
rthumb -11.7877 -2.73108
lclavicle -5.22804e-014 -2.22639e-014
lhumerus 53.0999 -6.33908 73.1815
lradius 34.1201
lwrist 33.4879
lhand -12.7223 13.5943
lfingers 7.12502
lthumb -166.639 583.146
rfemur 7.11494 -5.53146 19.2341
rtibia 25.9464
rfoot 28.712 -23.3849
rtoes 15.4504
lfemur -30.0421 -16.9573 -11.5043
ltibia 23.3116
lfoot 37.9472 -39.4847
ltoes 51.788
518
root -5.71446 18.0537 -1.15532 -165.556 2.32819 -176.863
lowerback -4.16657 8.46298 6.46415
upperback -6.48436 12.1567 1.78447
thorax -3.58847 6.20905 -1.48808
lowerneck -19.6194 -12.7115 -2.29741
upperneck 4.08233 -16.9097 4.22215
head 4.8207 -8.15012 -0.0125406
rclavicle -9.95911e-014 2.22639e-014
rhumerus 72.7776 34.8006 -62.5899
rradius 38.1706
rwrist -9.80176
rhand -38.4853 25.9761
rfingers 7.12502
rthumb -11.5073 -3.68805
lclavicle -9.95911e-014 2.22639e-014
lhumerus 52.4165 -6.37451 73.4796
lradius 34.2402
lwrist 33.3942
lhand -12.7056 13.3527
lfingers 7.12502
lthumb -166.623 582.903
rfemur 7.11803 -5.55054 18.9885
rtibia 26.0161
rfoot 28.4538 -23.6042
rtoes 16.4599
lfemur -29.9684 -17.0094 -11.7178
ltibia 23.2651
lfoot 37.638 -39.6597
ltoes 51.5578
519
root -5.7152 18.051 -1.15299 -165.551 2.35066 -176.922
lowerback -4.22001 8.40884 6.41394
upperback -6.36588 12.0573 1.83191
thorax -3.45801 6.16216 -1.39738
lowerneck -19.671 -12.5923 -2.34434
upperneck 4.03419 -16.7351 4.18591
head 4.80917 -8.06917 0.000966393
rclavicle -3.68249e-014 -1.59028e-014
rhumerus 71.9484 35.1589 -63.6134
rradius 38.234
rwrist -9.63124
rhand -38.5169 24.8337
rfingers 7.12502
rthumb -11.5378 -4.82871
lclavicle -3.68249e-014 -1.59028e-014
lhumerus 51.707 -6.32469 73.8655
lradius 34.4293
lwrist 33.2747
lhand -12.5599 13.48
lfingers 7.12502
lthumb -166.483 583.021
rfemur 7.10603 -5.54054 18.9106
rtibia 26.0301
rfoot 28.4113 -23.5575
rtoes 16.4528
lfemur -29.9651 -17.0261 -11.7883
ltibia 23.2415
lfoot 37.6962 -39.5425
ltoes 51.7487
520
root -5.71493 18.0513 -1.15176 -165.535 2.36286 -176.909
lowerback -4.24307 8.37782 6.41726
upperback -6.29318 12.0052 1.89475
thorax -3.38417 6.13865 -1.32706
lowerneck -19.6864 -12.5139 -2.45738
upperneck 3.98892 -16.6041 4.19807
head 4.80385 -8.0074 0.0344045
rclavicle 9.56154e-014 3.18055e-014
rhumerus 70.5979 35.4764 -65.6734
rradius 37.8036
rwrist -8.75688
rhand -38.3292 24.7471
rfingers 7.12502
rthumb -11.3568 -4.92539
lclavicle 9.56154e-014 3.18055e-014
lhumerus 50.9858 -6.36537 74.2647
lradius 34.5574
lwrist 33.0526
lhand -12.4147 13.6507
lfingers 7.12502
lthumb -166.343 583.183
rfemur 7.08454 -5.49931 18.9302
rtibia 26.0468
rfoot 28.3074 -23.546
rtoes 16.5181
lfemur -29.9751 -17.0275 -11.7659
ltibia 23.2237
lfoot 37.7237 -39.4441
ltoes 51.8334
521
root -5.71428 18.0519 -1.14911 -165.517 2.41711 -176.905
lowerback -4.23262 8.38355 6.38558
upperback -6.2391 12.0057 1.93071
thorax -3.34594 6.14038 -1.27117
lowerneck -19.7557 -12.488 -2.50251
upperneck 4.01339 -16.5555 4.1764
head 4.8221 -7.98374 0.0343653
rclavicle 2.26118e-014 1.27222e-014
rhumerus 69.4298 35.688 -66.7761
rradius 37.8682
rwrist -8.18819
rhand -38.1728 24.7796
rfingers 7.12502
rthumb -11.206 -4.90112
lclavicle 2.26118e-014 1.27222e-014
lhumerus 50.2936 -6.4676 74.6765
lradius 34.6328
lwrist 32.6075
lhand -12.1767 13.7234
lfingers 7.12502
lthumb -166.113 583.24
rfemur 7.04728 -5.44699 18.9223
rtibia 26.0813
rfoot 28.0689 -23.7468
rtoes 17.1822
lfemur -29.9827 -16.9946 -11.7614
ltibia 23.209
lfoot 37.6409 -39.4569
ltoes 51.7472
